<mxfile host="65bd71144e">
    <diagram id="OAcE3fDH09uMn2WHnA67" name="Page-1">
        <mxGraphModel dx="576" dy="631" grid="1" gridSize="10" guides="1" tooltips="1" connect="1" arrows="1" fold="1" page="1" pageScale="1" pageWidth="827" pageHeight="1169" math="0" shadow="0">
            <root>
                <mxCell id="0"/>
                <mxCell id="1" parent="0"/>
                <mxCell id="4" value="" style="edgeStyle=none;html=1;" edge="1" parent="1" source="2" target="3">
                    <mxGeometry relative="1" as="geometry"/>
                </mxCell>
                <mxCell id="2" value="Start" style="ellipse;whiteSpace=wrap;html=1;" vertex="1" parent="1">
                    <mxGeometry x="340" y="300" width="90" height="60" as="geometry"/>
                </mxCell>
                <mxCell id="6" value="" style="edgeStyle=none;html=1;" edge="1" parent="1" source="3" target="5">
                    <mxGeometry relative="1" as="geometry"/>
                </mxCell>
                <mxCell id="3" value="Введите строку &lt;br&gt;(n раз)" style="shape=parallelogram;perimeter=parallelogramPerimeter;whiteSpace=wrap;html=1;fixedSize=1;" vertex="1" parent="1">
                    <mxGeometry x="325" y="380" width="120" height="60" as="geometry"/>
                </mxCell>
                <mxCell id="8" value="" style="edgeStyle=none;html=1;" edge="1" parent="1" source="5">
                    <mxGeometry relative="1" as="geometry">
                        <mxPoint x="385" y="540" as="targetPoint"/>
                    </mxGeometry>
                </mxCell>
                <mxCell id="5" value="string[] arr = new string [n]" style="rounded=0;whiteSpace=wrap;html=1;" vertex="1" parent="1">
                    <mxGeometry x="307.5" y="460" width="155" height="60" as="geometry"/>
                </mxCell>
                <mxCell id="10" value="" style="edgeStyle=none;html=1;" edge="1" parent="1" target="9">
                    <mxGeometry relative="1" as="geometry">
                        <mxPoint x="422.01436307982124" y="572.3258770897105" as="sourcePoint"/>
                    </mxGeometry>
                </mxCell>
                <mxCell id="11" style="edgeStyle=none;html=1;exitX=0.5;exitY=1;exitDx=0;exitDy=0;entryX=0.5;entryY=1;entryDx=0;entryDy=0;" edge="1" parent="1" source="9" target="12">
                    <mxGeometry relative="1" as="geometry">
                        <mxPoint x="380" y="610" as="targetPoint"/>
                        <Array as="points">
                            <mxPoint x="245" y="660"/>
                            <mxPoint x="385" y="660"/>
                        </Array>
                    </mxGeometry>
                </mxCell>
                <mxCell id="9" value="arr[i]=&lt;br&gt;Console.ReadLine" style="rounded=0;whiteSpace=wrap;html=1;" vertex="1" parent="1">
                    <mxGeometry x="190" y="542.75" width="110" height="57.25" as="geometry"/>
                </mxCell>
                <mxCell id="14" value="" style="edgeStyle=none;html=1;" edge="1" parent="1" source="12" target="13">
                    <mxGeometry relative="1" as="geometry"/>
                </mxCell>
                <mxCell id="12" value="i=0, i&amp;lt;n,&amp;nbsp; i++" style="shape=hexagon;perimeter=hexagonPerimeter2;whiteSpace=wrap;html=1;fixedSize=1;" vertex="1" parent="1">
                    <mxGeometry x="332.5" y="542.75" width="105" height="57.25" as="geometry"/>
                </mxCell>
                <mxCell id="17" value="" style="edgeStyle=none;html=1;" edge="1" parent="1" source="13" target="16">
                    <mxGeometry relative="1" as="geometry"/>
                </mxCell>
                <mxCell id="13" value="string[] newarr = new string [n]" style="rounded=0;whiteSpace=wrap;html=1;" vertex="1" parent="1">
                    <mxGeometry x="470" y="541.37" width="120" height="60" as="geometry"/>
                </mxCell>
                <mxCell id="20" value="" style="edgeStyle=none;html=1;" edge="1" parent="1" source="15" target="19">
                    <mxGeometry relative="1" as="geometry"/>
                </mxCell>
                <mxCell id="23" style="edgeStyle=none;html=1;" edge="1" parent="1" source="15">
                    <mxGeometry relative="1" as="geometry">
                        <mxPoint x="690" y="540" as="targetPoint"/>
                        <Array as="points">
                            <mxPoint x="830" y="470"/>
                            <mxPoint x="690" y="470"/>
                        </Array>
                    </mxGeometry>
                </mxCell>
                <mxCell id="15" value="arr[i].Length&amp;lt;4" style="rhombus;whiteSpace=wrap;html=1;" vertex="1" parent="1">
                    <mxGeometry x="770" y="512.05" width="120" height="118.63" as="geometry"/>
                </mxCell>
                <mxCell id="18" value="" style="edgeStyle=none;html=1;" edge="1" parent="1" source="16" target="15">
                    <mxGeometry relative="1" as="geometry"/>
                </mxCell>
                <mxCell id="16" value="i=0, i&amp;lt;n, i++" style="shape=hexagon;perimeter=hexagonPerimeter2;whiteSpace=wrap;html=1;fixedSize=1;" vertex="1" parent="1">
                    <mxGeometry x="640" y="541.37" width="105" height="57.25" as="geometry"/>
                </mxCell>
                <mxCell id="22" style="edgeStyle=none;html=1;" edge="1" parent="1" source="19">
                    <mxGeometry relative="1" as="geometry">
                        <mxPoint x="690" y="600" as="targetPoint"/>
                        <Array as="points">
                            <mxPoint x="970" y="680"/>
                            <mxPoint x="690" y="680"/>
                        </Array>
                    </mxGeometry>
                </mxCell>
                <mxCell id="26" style="edgeStyle=none;html=1;entryX=0.5;entryY=0;entryDx=0;entryDy=0;exitX=1;exitY=0.5;exitDx=0;exitDy=0;" edge="1" parent="1" source="19" target="25">
                    <mxGeometry relative="1" as="geometry">
                        <Array as="points">
                            <mxPoint x="1070" y="569"/>
                            <mxPoint x="1070" y="730"/>
                            <mxPoint x="400" y="730"/>
                        </Array>
                    </mxGeometry>
                </mxCell>
                <mxCell id="19" value="newarr[j]=&lt;br&gt;arr[i]&lt;br&gt;j++" style="rounded=0;whiteSpace=wrap;html=1;" vertex="1" parent="1">
                    <mxGeometry x="910" y="538.62" width="120" height="60" as="geometry"/>
                </mxCell>
                <mxCell id="21" value="Yes" style="text;html=1;align=center;verticalAlign=middle;resizable=0;points=[];autosize=1;strokeColor=none;fillColor=none;" vertex="1" parent="1">
                    <mxGeometry x="870" y="525" width="40" height="30" as="geometry"/>
                </mxCell>
                <mxCell id="24" value="No" style="text;html=1;align=center;verticalAlign=middle;resizable=0;points=[];autosize=1;strokeColor=none;fillColor=none;" vertex="1" parent="1">
                    <mxGeometry x="750" y="435" width="40" height="30" as="geometry"/>
                </mxCell>
                <mxCell id="29" value="" style="edgeStyle=none;html=1;" edge="1" parent="1" source="25" target="28">
                    <mxGeometry relative="1" as="geometry"/>
                </mxCell>
                <mxCell id="25" value="Output&lt;br&gt;[arr] -&amp;gt; [newarr]" style="shape=document;whiteSpace=wrap;html=1;boundedLbl=1;" vertex="1" parent="1">
                    <mxGeometry x="340" y="770" width="120" height="80" as="geometry"/>
                </mxCell>
                <mxCell id="28" value="End" style="ellipse;whiteSpace=wrap;html=1;" vertex="1" parent="1">
                    <mxGeometry x="355" y="880" width="90" height="60" as="geometry"/>
                </mxCell>
            </root>
        </mxGraphModel>
    </diagram>
</mxfile>